<?xml version="1.0" standalone="no"?>
<!DOCTYPE svg PUBLIC "-//W3C//DTD SVG 20010904//EN"
 "http://www.w3.org/TR/2001/REC-SVG-20010904/DTD/svg10.dtd">
<svg version="1.0" xmlns="http://www.w3.org/2000/svg"
 width="1048.000000pt" height="876.000000pt" viewBox="0 0 1048.000000 876.000000"
 preserveAspectRatio="xMidYMid meet">

<g transform="translate(0.000000,876.000000) scale(0.100000,-0.100000)"
fill="#000000" stroke="none">
<path d="M5105 8283 c-11 -3 -45 -13 -75 -23 -30 -10 -89 -29 -130 -40 -41
-12 -131 -39 -200 -60 -69 -21 -174 -52 -235 -70 -60 -17 -130 -38 -155 -46
-73 -23 -414 -125 -545 -163 -73 -21 -323 -95 -460 -136 -44 -13 -165 -50
-270 -81 -104 -31 -242 -72 -305 -91 -63 -20 -198 -60 -300 -90 -336 -98 -695
-204 -725 -214 -16 -6 -146 -44 -288 -85 -342 -98 -367 -113 -256 -142 90 -24
690 -197 909 -262 340 -101 791 -230 858 -246 l62 -14 257 65 c141 36 381 101
532 144 152 43 308 86 346 96 39 9 90 23 115 30 25 7 77 23 115 34 39 11 131
39 205 62 212 65 270 72 270 35 0 -24 -33 -38 -362 -151 -102 -35 -125 -44
-288 -105 -47 -18 -132 -50 -190 -70 -261 -95 -599 -220 -640 -238 -25 -10
-110 -43 -190 -72 -80 -29 -152 -59 -160 -66 -13 -13 -15 -81 -15 -497 l0
-482 23 -3 c24 -4 105 15 242 55 158 46 394 111 680 187 157 42 452 121 655
177 204 55 404 110 445 121 90 24 106 22 385 -52 105 -28 249 -66 320 -85 72
-19 240 -64 375 -101 135 -36 352 -95 482 -130 131 -35 275 -75 320 -88 121
-37 317 -86 344 -86 13 0 24 6 24 13 0 6 0 278 0 604 0 556 1 593 17 601 10 5
50 17 88 27 74 19 199 54 460 130 88 26 180 52 205 59 72 20 419 122 615 181
235 70 387 112 456 125 31 6 65 17 75 24 17 13 15 15 -17 31 -19 10 -70 28
-114 40 -82 23 -186 53 -495 145 -96 29 -233 70 -305 90 -71 21 -155 45 -185
54 -30 9 -77 23 -105 31 -43 12 -347 104 -635 191 -47 14 -114 34 -150 44
-103 29 -289 83 -495 145 -104 31 -219 65 -255 76 -85 24 -341 100 -710 211
-91 27 -196 58 -235 69 -38 11 -90 27 -115 35 -207 64 -227 68 -275 57z"/>
<path d="M5005 5580 c-71 -21 -447 -121 -700 -185 -99 -26 -241 -64 -315 -85
-74 -22 -184 -51 -243 -66 -124 -31 -127 -34 -127 -134 0 -33 -4 -81 -9 -107
-29 -150 -35 -174 -42 -179 -5 -3 -9 -13 -9 -23 0 -25 -96 -211 -150 -291 -72
-107 -154 -203 -257 -299 -93 -88 -230 -191 -252 -191 -6 0 -11 -4 -11 -8 0
-5 51 -26 113 -47 225 -76 469 -179 626 -265 313 -170 704 -505 901 -770 14
-18 43 -56 66 -84 100 -126 178 -256 324 -540 42 -83 82 -152 89 -154 10 -3
12 14 7 84 -5 63 -19 1805 -16 1972 0 21 -33 13 -93 -23 -32 -19 -69 -35 -82
-35 l-24 0 26 28 c14 15 42 61 61 102 32 68 36 83 35 160 0 93 -17 163 -59
239 -14 27 -25 54 -23 60 3 7 39 -6 89 -31 l85 -43 120 0 c115 0 123 1 189 33
37 17 75 32 83 32 12 0 11 -6 -5 -32 -39 -66 -62 -162 -62 -262 0 -52 4 -97 9
-100 5 -3 12 -21 15 -39 3 -18 17 -49 31 -67 22 -30 34 -80 19 -80 -3 0 -20
11 -38 25 -39 29 -106 59 -115 50 -3 -4 -7 -469 -9 -1035 -2 -915 -1 -1028 13
-1033 9 -4 15 -1 15 8 0 7 7 26 15 42 8 15 34 71 59 123 91 194 173 328 309
508 125 166 240 296 337 382 41 36 94 83 119 105 150 133 326 260 496 358 126
72 452 213 667 288 90 31 120 49 84 49 -29 0 -170 105 -259 193 -220 219 -340
394 -410 599 -28 83 -62 304 -53 348 7 36 -11 56 -62 69 -142 36 -294 77 -397
106 -66 18 -219 59 -340 90 -121 31 -249 65 -285 75 -379 106 -441 114 -555
80z"/>
<path d="M9370 5227 c0 -385 -83 -602 -321 -839 -287 -286 -637 -431 -1539
-638 -254 -58 -579 -185 -791 -307 -20 -12 -47 -27 -59 -35 -91 -52 -251 -164
-335 -233 -156 -129 -415 -387 -415 -414 0 -31 6 -27 130 66 357 268 895 488
1461 597 313 60 410 75 534 86 455 39 619 64 775 117 389 132 605 373 699 780
15 62 16 380 2 462 -6 31 -15 92 -22 136 -12 88 -61 268 -84 312 -8 15 -15 34
-15 41 0 6 -4 12 -10 12 -6 0 -10 -54 -10 -143z"/>
<path d="M862 5333 c-43 -115 -67 -205 -98 -367 -24 -129 -26 -154 -21 -330 3
-105 9 -207 15 -226 5 -19 15 -60 22 -90 33 -147 119 -305 227 -420 84 -89
156 -141 288 -205 197 -96 371 -135 772 -170 282 -25 360 -35 573 -75 247 -47
323 -64 455 -102 489 -139 818 -291 1114 -513 61 -46 122 -85 138 -88 15 -4
22 -4 16 -1 -7 3 -13 12 -13 19 0 39 -301 327 -490 470 -187 141 -450 291
-640 364 -116 45 -357 127 -400 136 -19 3 -181 42 -359 86 -694 170 -976 301
-1258 585 -73 73 -133 138 -133 144 0 6 -11 26 -24 43 -35 46 -92 189 -116
287 -15 59 -23 139 -29 265 -4 99 -12 189 -18 199 -9 16 -11 15 -21 -11z"/>
<path d="M6554 1571 c-103 -25 -199 -102 -246 -199 -30 -60 -33 -76 -37 -175
-5 -163 27 -255 118 -340 98 -91 211 -121 374 -98 154 22 268 111 317 248 33
93 34 232 2 317 -45 118 -123 193 -244 236 -60 21 -216 27 -284 11z m234 -177
c97 -48 139 -129 130 -252 -8 -109 -55 -177 -151 -217 -83 -35 -201 -6 -260
64 -83 99 -73 291 19 373 68 60 178 74 262 32z"/>
<path d="M2238 1178 c-3 -216 -2 -396 1 -400 9 -10 83 -12 344 -10 l237 2 0
63 c0 99 5 96 -210 99 l-185 3 0 80 0 80 160 5 160 5 -4 75 c-2 41 -8 78 -15
82 -6 4 -78 8 -159 8 l-148 0 3 63 3 62 195 5 195 5 0 80 0 80 -286 3 -286 2
-5 -392z"/>
<path d="M3100 1176 c0 -300 3 -397 12 -402 18 -12 346 -5 398 8 115 28 212
103 254 197 73 162 51 339 -55 455 -97 106 -194 136 -446 136 l-163 0 0 -394z
m413 191 c75 -44 107 -106 107 -206 0 -76 -36 -151 -87 -185 -43 -28 -138 -49
-198 -44 l-40 3 -3 220 c-1 121 0 226 3 234 4 10 23 13 89 9 67 -3 92 -9 129
-31z"/>
<path d="M4072 1288 c4 -263 6 -287 26 -339 26 -65 91 -135 160 -170 42 -21
59 -24 159 -23 100 1 118 4 167 28 31 15 74 49 100 77 75 83 79 104 84 427 l4
282 -96 0 -96 0 -1 -257 c-1 -294 -5 -321 -62 -367 -34 -27 -47 -31 -97 -31
-50 0 -63 4 -97 31 -21 17 -43 47 -50 66 -7 23 -13 130 -15 294 l-3 259 -93 3
-94 3 4 -283z"/>
<path d="M5060 1171 l0 -399 23 -6 c37 -10 155 -7 162 4 4 6 6 85 5 175 0 91
3 165 7 165 19 -1 32 -20 57 -85 15 -38 46 -113 70 -165 l42 -95 90 -3 c95 -3
134 2 134 18 0 10 57 149 105 258 13 28 30 52 38 52 12 0 13 -26 9 -158 l-5
-159 24 -6 c30 -8 142 -9 162 -1 14 5 15 55 10 402 l-5 397 -99 3 c-88 2 -100
1 -105 -15 -7 -21 -186 -438 -214 -500 -19 -41 -54 -71 -64 -55 -3 5 -21 51
-40 103 -18 52 -67 171 -108 264 -41 94 -78 178 -81 188 -6 15 -20 17 -112 17
l-105 0 0 -399z"/>
<path d="M7390 1563 c0 -5 0 -168 -1 -363 -1 -195 -1 -374 0 -398 l1 -43 88 3
87 3 5 227 c3 124 8 229 12 233 4 4 11 4 17 1 5 -4 69 -106 141 -227 95 -159
139 -223 157 -230 32 -12 166 -12 179 0 5 6 8 165 7 403 l-2 393 -91 3 -92 3
4 -230 c1 -126 0 -233 -5 -237 -13 -13 -52 33 -99 119 -69 123 -198 331 -211
339 -16 10 -197 10 -197 1z"/>
</g>
</svg>
